<svg width="512" height="513" viewBox="0 0 512 513" fill="none" xmlns="http://www.w3.org/2000/svg">
    <path fill-rule="evenodd" clip-rule="evenodd"
        d="M159.97 25.3291L351.312 25.3291L486.611 160.628L486.611 351.97L351.312 487.269L159.97 487.269L24.6709 351.97L24.6708 160.628L159.97 25.3291ZM69.7875 179.316L69.7875 333.282L178.658 442.152L332.624 442.152L441.494 333.282L441.494 179.316L332.624 70.4457L178.658 70.4458L69.7875 179.316Z"
        fill="white" />
    <path fill-rule="evenodd" clip-rule="evenodd"
        d="M194.13 106.814L315.8 107.933L410.368 204.225L384.414 230.661L300.796 145.519L209.816 144.682L160.121 195.3L417.791 305.943L318.503 407.075L196.833 405.955L102.265 309.663L128.219 283.227L211.837 368.37L302.817 369.207L352.512 318.589L94.842 207.946L194.13 106.814Z"
        fill="white" />
</svg>